<?xml version="1.0" encoding="UTF-8"?>
<!--
  Sculptor guy on a cart: the untouched logo (no limbs) riding a wheeled
  dolly, the way an actual sculpture gets moved around.

  Same rig conventions as sculptor-guy.svg, but the joints here are not limb
  rotations:

    body    - the sculpture itself. Rocks about its contact point with the
              cart deck (118, 246) under acceleration, and translates up to
              open a gap from the deck while airborne.
    wheelL  - wheel rotation, pivot (92, 282)
    wheelR  - wheel rotation, pivot (156, 282)
    pupils  - translate-only, for look direction
    mouth   - a little "O", hidden at scale(0); scale toward 1 for awe
              (airborne, full speed)

  The sculpture's rounded base touches the deck only at its center dip
  (canvas x~118), which is why rocking pivots there. Rock within +/-14
  degrees: past that the base corners visually dig into the deck.
  Wheel bottoms rest at y=300 in the 260x320 viewBox. Each wheel has an
  off-center dot so rolling is visible; drive wheel angle from horizontal
  travel (deg = px_moved / wheel_radius * 57.3).
-->
<svg width="260" height="320" viewBox="0 0 260 320" fill="none" xmlns="http://www.w3.org/2000/svg">
  <title>Sculptor guy (on a cart)</title>
  <style>
    .face { animation: blink 4.6s infinite; transform-box: fill-box; transform-origin: center; }
    @keyframes blink {
      0%, 95%, 100% { transform: scaleY(1); }
      97% { transform: scaleY(0.08); }
    }
  </style>

  <!-- the dolly -->
  <rect x="58" y="246" width="132" height="18" rx="8" fill="#8A5A33"/>
  <path d="M66 255H182" stroke="#6D4527" stroke-width="2" stroke-linecap="round"/>
  <path d="M74 250.5H94" stroke="#6D4527" stroke-width="1.5" stroke-linecap="round" opacity="0.6"/>
  <path d="M140 259.5H162" stroke="#6D4527" stroke-width="1.5" stroke-linecap="round" opacity="0.6"/>
  <g transform="translate(92,282)">
    <g data-joint="wheelL">
      <circle r="18" fill="#B7AEA1"/>
      <circle r="5.5" fill="#7E766B"/>
      <circle cy="-10.5" r="2.8" fill="#7E766B"/>
      <path d="M-7 -16.5L-3 -9" stroke="#8F8578" stroke-width="2" stroke-linecap="round" fill="none"/>
    </g>
  </g>
  <g transform="translate(156,282)">
    <g data-joint="wheelR">
      <circle r="18" fill="#B7AEA1"/>
      <circle r="5.5" fill="#7E766B"/>
      <circle cy="-10.5" r="2.8" fill="#7E766B"/>
      <path d="M-7 -16.5L-3 -9" stroke="#8F8578" stroke-width="2" stroke-linecap="round" fill="none"/>
    </g>
  </g>

  <!-- the sculpture: the original Sculptor logo path, untouched -->
  <g data-joint="body">
    <g transform="translate(52,44)">
      <path d="M103.454 3.61361C121.524 12.5312 120.94 41.6833 117.978 52.6868C115.015 63.6904 107.821 70.0386 100.906 75.388C97.9926 106.013 134.582 64.3285 148.548 84.6428C162.514 104.957 153.627 133.736 144.739 135.005C128.703 137.296 125.232 138.624 117.845 148.001C110.459 157.379 120.69 173.484 113.322 184.73C102.996 200.492 20.5874 208.896 19.344 187.446C18.9618 180.851 19.465 174.645 22.2676 168.655C23.315 166.417 26.9455 158.371 23.1397 157.379C16.7512 155.714 0.917805 158.702 0.229106 148.748C-0.811812 133.703 1.18263 109.089 17.0262 101.84C27.9341 96.849 53.1464 99.2114 60.3123 90.9717C62.586 88.3571 62.6406 85.3365 63.0102 82.1206C59.8859 80.1425 57.3346 77.4172 54.7865 74.7714C46.0239 65.6729 45.514 50.5068 46.8776 39.144C49.4168 17.9833 55.7701 8.83934 71.3307 2.64402C80.8742 -1.1556 94.3401 -0.883824 103.454 3.61361Z" fill="#F50D00"/>
      <!-- the logo's shoulder scratches (chisel marks), hand-wobbled by the
           turbulence filters -->
      <g stroke="#FCEFD4" stroke-width="4" stroke-linecap="round" fill="none">
        <path filter="url(#scratch-a)" d="M53.1592 101.047H70.4064"/>
        <path filter="url(#scratch-b)" d="M90.9717 99.2595C93.7012 99.2595 100.389 98.3314 103.73 97.2345C107.668 96.5354 110.678 96.1247 112.147 95.6959C112.879 95.451 113.582 95.1503 115.319 94.584"/>
      </g>
    </g>
    <g class="face">
      <ellipse cx="124" cy="84" rx="7.5" ry="8.5" fill="#FFFFFF"/>
      <ellipse cx="150" cy="80" rx="7.5" ry="8.5" fill="#FFFFFF"/>
      <g data-joint="pupils">
        <circle cx="124" cy="86" r="3.4" fill="#1F1F1F"/>
        <circle cx="150" cy="82" r="3.4" fill="#1F1F1F"/>
      </g>
      <g transform="translate(137,103)">
        <g data-joint="mouth" transform="scale(0)">
          <ellipse rx="5.5" ry="6.5" fill="#1F1F1F"/>
        </g>
      </g>
    </g>
  </g>
  <defs>
    <filter id="scratch-a" x="49.552" y="97.4397" width="24.4614" height="7.21429" filterUnits="userSpaceOnUse" color-interpolation-filters="sRGB">
      <feTurbulence type="fractalNoise" baseFrequency="0.16969696 0.16969696" numOctaves="3" seed="1005"/>
      <feDisplacementMap in="SourceGraphic" scale="3.2142861" xChannelSelector="R" yChannelSelector="G"/>
    </filter>
    <filter id="scratch-b" x="87.3645" y="90.9768" width="31.5624" height="11.8901" filterUnits="userSpaceOnUse" color-interpolation-filters="sRGB">
      <feTurbulence type="fractalNoise" baseFrequency="0.16969696 0.16969696" numOctaves="3" seed="1005"/>
      <feDisplacementMap in="SourceGraphic" scale="3.2142861" xChannelSelector="R" yChannelSelector="G"/>
    </filter>
  </defs>
</svg>
