<svg width="336" height="336" viewBox="0 0 336 336" fill="none" xmlns="http://www.w3.org/2000/svg">
<path d="M259.669 150.555C259.669 150.555 259.669 150.509 259.669 150.486C261.081 137.66 270.62 96.3803 274.185 81.5401C274.995 78.1368 274.231 74.5483 272.101 71.7933C269.971 69.0382 266.707 67.3713 263.211 67.2787L181.926 65.3108C178.453 65.2182 175.165 66.6767 172.92 69.2929C170.651 71.8859 169.678 75.3586 170.234 78.7619C171.091 83.9247 172.665 95.2922 173.383 105.942C169.493 103.465 165.303 101.312 160.696 99.6679C137.15 91.4027 114.462 94.3893 98.3945 107.91C83.7395 120.227 76.632 139.72 79.8501 158.774C80.4289 162.154 81.4012 165.442 82.7672 168.567C75.9606 170.651 69.5707 174.332 64.1532 179.495C52.2533 190.885 47.623 208.249 51.7903 225.983C56.4437 245.778 70.5663 261.567 88.6477 267.193C96.1488 269.532 103.141 270.735 109.901 270.735C127.936 270.735 144.119 262.03 162.849 242.861C168.313 247.237 174.239 251.288 180.676 254.714C200.169 265.11 223.275 267.471 244.088 261.197C270.643 253.186 286.594 229.618 285.715 199.706C285.159 180.513 274.949 162.108 259.692 150.555H259.669ZM248.417 90.0599C245.13 104.275 240.222 126.107 237.837 139.998C233.832 138.956 229.919 138.285 226.099 137.613C221.168 136.757 216.514 135.97 212.463 134.488C206.883 132.451 201.72 128.746 196.511 124.463C197.576 114.161 196.326 99.5058 195.03 88.7866L248.417 90.0831V90.0599ZM113.281 125.598C119.162 120.643 126.593 118.143 135.044 118.143C140.646 118.143 146.689 119.254 153.009 121.477C159.469 123.746 165.372 128.283 171.415 133.423C167.479 149.004 158.681 165.071 143.425 172.063C135.09 175.883 124 175.327 115.156 170.628C111.128 168.498 104.113 163.59 102.654 154.908C100.802 143.888 104.877 132.659 113.281 125.575V125.598ZM95.5006 245.06C85.3602 241.912 77.0487 232.327 74.3168 220.658C73.2287 216.028 71.6081 204.36 80.1279 196.187C84.6193 191.881 90.4535 189.612 96.2414 189.612C99.529 189.612 102.793 190.33 105.78 191.835C117.518 197.669 126.778 204.938 134.951 214.708C138.215 218.621 141.85 222.812 145.855 227.048C124.625 248.765 112.123 250.2 95.5006 245.014V245.06ZM162.501 210.981C158.913 207.184 155.649 203.41 152.708 199.891C151.296 198.201 149.838 196.558 148.356 194.96C149.953 194.428 151.504 193.802 153.032 193.108C170.234 185.236 183.523 169.493 190.839 149.166C195.006 151.944 199.498 154.398 204.499 156.227C210.495 158.404 216.399 159.422 222.117 160.418C225.567 161.02 228.854 161.575 231.933 162.386C226.724 172.503 217.44 182.991 204.776 189.728C200.933 191.788 196.095 193.895 191.001 196.164C181.463 200.354 171.021 204.962 162.501 211.004V210.981ZM237.351 239.018C222.372 243.532 205.656 241.819 191.534 234.272C187.598 232.165 183.824 229.734 180.259 227.071C186.278 223.529 193.594 220.311 200.354 217.348C205.865 214.917 211.074 212.625 215.704 210.171C232.605 201.165 244.551 187.899 251.728 174.563C258.141 181.694 262.262 191.001 262.54 200.401C262.748 207.624 261.567 231.748 237.351 239.041V239.018Z" fill="#A6AA91"/>
</svg>
