<svg width="336" height="336" viewBox="0 0 336 336" fill="none" xmlns="http://www.w3.org/2000/svg">
<path d="M246.148 205.795C251.242 199.891 255.455 194.567 258.141 190.422C293.031 136.247 267.101 106.22 248.533 93.1391C230.753 80.6141 211.004 79.7574 192.112 89.7821C191.974 87.5596 191.765 85.3601 191.441 83.2302C189.08 68.2511 181.926 56.9299 170.79 50.4937C144.86 35.4915 102.817 42.4601 80.1279 79.8732C63.1346 107.91 66.2832 144.258 87.4438 164.423C91.2407 168.035 95.2228 171.021 99.0891 173.892C99.529 174.216 99.9457 174.54 100.386 174.864C74.9188 216.468 50.4938 264.508 50.2391 265.04C48.3175 268.814 48.6185 273.328 51.0031 276.824C53.1794 279.996 56.7679 281.871 60.5647 281.871C60.9352 281.871 61.3287 281.871 61.6992 281.825L176.485 270.434C192.83 279.209 219.709 293.031 239.596 293.031C267.564 293.031 287.081 275.134 287.081 249.505C287.081 227.28 273.305 212.671 246.148 205.841V205.795ZM176.856 244.366C176.624 244.25 176.416 244.134 176.184 244.018C164.84 238.115 154.144 232.535 149.537 220.774C147.43 215.403 146.064 210.078 144.605 204.429C142.059 194.567 139.419 184.426 132.891 174.679C142.128 168.266 152.268 160.348 162.525 150.254C162.965 153.032 163.566 155.88 164.4 158.797C172.341 186.533 186.139 206.837 203.688 217.533C193.941 227.558 184.148 237.258 176.879 244.319L176.856 244.366ZM235.175 112.077C242.977 117.564 266.73 134.303 238.647 177.897C235.267 183.13 228.414 191.186 220.172 200.169C199.243 190.978 189.381 162.085 186.649 152.477C183.708 142.197 184.472 132.775 187.089 122.542C207.763 100.825 224.455 104.507 235.175 112.054V112.077ZM99.8763 91.8658C108.79 77.1645 125.69 66.0517 142.197 66.0517C148.009 66.0517 153.796 67.4408 159.144 70.5199C170.998 77.3728 170.165 98.4871 167.086 108.257C166.785 109.206 166.484 110.156 166.206 111.128C164.863 112.679 163.52 114.277 162.201 115.943C146.758 135.576 130.228 148.587 116.337 157.917C115.179 157.038 114.022 156.181 112.887 155.324C109.415 152.731 106.15 150.301 103.372 147.638C88.5551 133.539 89.9673 108.188 99.8763 91.8426V91.8658ZM116.545 192.761C118.976 197.924 120.458 203.642 122.148 210.217C123.722 216.283 125.32 222.534 127.936 229.201C131.525 238.369 136.988 245.107 143.124 250.408L80.6604 256.613C89.2959 240.36 102.585 215.936 116.545 192.761ZM239.55 269.833C228.576 269.833 211.791 262.493 198.317 255.71C206.258 247.908 217.209 236.98 227.789 225.868C263.859 230.498 263.883 243.764 263.883 249.459C263.883 262.216 254.784 269.833 239.55 269.833Z" fill="#EA8554"/>
</svg>
