<svg width="53" height="15" viewBox="0 0 53 15" fill="none" xmlns="http://www.w3.org/2000/svg">
<path d="M0.0859375 2.2768C0.0859375 1.41774 0.758054 0.783203 1.61711 0.783203C2.47618 0.783203 3.14829 1.41822 3.14829 2.2768C3.14829 3.13537 2.47618 3.75184 1.61711 3.75184C0.758054 3.75184 0.0859375 3.11682 0.0859375 2.2768ZM0.291427 4.77881H2.9428V14.3764H0.291427V4.77881Z" fill="#44443D"/>
<path d="M19.8343 8.86866V14.3769H17.2015V9.01802C17.2015 7.58007 16.6788 6.83328 15.5395 6.83328C14.4003 6.83328 13.6349 7.6733 13.6349 9.1298V14.3769H11.0021V9.01802C11.0021 7.58007 10.4794 6.83328 9.32158 6.83328C8.16381 6.83328 7.43556 7.71088 7.43556 9.14835V14.3764H4.80273V4.77885H7.09926L7.34184 5.97373C7.92073 5.22693 8.76124 4.68514 10.1616 4.66659C11.3379 4.64804 12.4396 5.07757 13.037 6.29099C13.7091 5.26403 14.8293 4.66659 16.2858 4.66659C18.2651 4.66659 19.8338 5.78678 19.8338 8.86769L19.8343 8.86866Z" fill="#44443D"/>
<path d="M31.4182 9.55801C31.4182 12.5267 29.5507 14.4874 26.9555 14.4874C25.5737 14.4874 24.6214 13.8899 24.0054 13.0684L23.7438 14.3756H21.4473V1.30469H24.0801V5.99145C24.7151 5.2261 25.6484 4.66576 26.974 4.66576C29.5507 4.66576 31.4182 6.51421 31.4182 9.55801ZM28.7483 9.57656C28.7483 7.93361 27.8146 6.81292 26.3766 6.81292C24.9387 6.81292 24.0425 7.93312 24.0425 9.55752C24.0425 11.1819 24.9387 12.3397 26.3766 12.3397C27.8146 12.3397 28.7483 11.2195 28.7483 9.57607V9.57656Z" fill="#44443D"/>
<path d="M38.9375 4.7793H41.5704V14.3769H39.2363L38.9937 13.2191C38.3777 13.9659 37.5372 14.4886 36.1744 14.4886C34.1951 14.4886 32.3652 13.4988 32.3652 10.1006V4.7793H34.9981V9.74623C34.9981 11.4639 35.5584 12.3044 36.8651 12.3044C38.1717 12.3044 38.9375 11.3521 38.9375 9.57832V4.77979V4.7793Z" fill="#44443D"/>
<path d="M42.6353 9.59536C42.6353 6.60769 44.596 4.66602 47.5646 4.66602C50.5332 4.66602 52.3822 6.45833 52.4193 9.2781C52.4193 9.55827 52.4007 9.87553 52.3446 10.1743H45.3799V10.3051C45.436 11.6678 46.3136 12.4898 47.6393 12.4898C48.7038 12.4898 49.4506 12.0232 49.6747 11.1265H52.2699C51.9712 12.994 50.3092 14.4876 47.7511 14.4876C44.5584 14.4876 42.6348 12.5645 42.6348 9.59536H42.6353ZM49.7679 8.45662C49.5814 7.28029 48.7785 6.62672 47.5831 6.62672C46.3878 6.62672 45.5853 7.31739 45.436 8.45662H49.7679Z" fill="#44443D"/>
</svg>
