<svg width="336" height="336" viewBox="0 0 336 336" fill="none" xmlns="http://www.w3.org/2000/svg">
<path d="M233.577 163.381C245.5 154.861 251.751 141.41 251.751 128.469C251.751 113.165 244.412 98.2324 232.582 89.4811C218.251 78.8777 199.729 78.924 184.38 84.1099C182.157 81.9337 179.819 79.8269 177.342 77.8127C151.805 56.6752 92.2593 56.6058 85.5454 56.6752C80.3825 56.7215 75.868 60.1943 74.4789 65.1719L62.5558 108.512C61.7455 111.475 62.139 114.67 63.6671 117.333C65.1951 120.018 67.7417 121.963 70.7052 122.75C70.983 122.82 80.7993 125.482 96.1951 130.413C59.6387 140.623 50.5864 162.432 50.5864 181.555C50.5864 213.111 79.7806 233.484 124.973 233.484C130.575 233.484 135.97 233.183 141.132 232.605C142.545 234.642 144.05 236.703 145.693 238.832C155.093 251.01 181.532 279.348 223.992 279.348C263.79 279.348 285.275 253.048 285.275 228.298C285.275 203.549 269.717 184.31 233.508 163.381H233.577ZM218.806 108.072C224.756 112.471 228.599 120.481 228.599 128.445C228.599 134.812 224.733 143.563 214.732 147.291C213.042 131.293 208.249 116.846 200.378 104.02C206.953 103.256 213.62 104.229 218.806 108.072ZM178.754 113.188C184.496 121.662 188.385 131.061 190.469 141.526C181.463 137.428 172.526 133.631 163.844 130.112C168.266 123.12 173.267 117.471 178.754 113.188ZM125.32 188.408C126.084 196.488 127.45 203.549 129.672 210.217C128.121 210.286 126.57 210.31 125.019 210.31C93.88 210.31 73.7843 199.012 73.7843 181.532C73.7843 158.242 101.52 150.277 130.205 148.24C125.829 162.085 124.162 175.721 125.32 188.385V188.408ZM141.92 121.616C118.976 113.096 99.5058 106.984 87.93 103.557L94.4356 79.85C135.622 80.8687 157.431 91.3796 162.548 95.6163C162.71 95.7552 162.895 95.8941 163.057 96.033C155 102.631 147.916 111.174 141.897 121.592L141.92 121.616ZM153.102 206.721C150.509 200.54 149.097 194.15 148.356 186.255C147.175 173.545 150.023 161.135 153.681 151.041C166.067 156.019 178.985 161.599 191.788 167.711C188.918 189.195 172.758 201.28 153.102 206.721ZM224.039 256.173C194.358 256.173 174.633 237.443 166.021 227.095C190.839 218.459 207.624 201.466 213.296 178.592C214.454 179.217 215.611 179.842 216.746 180.467C257.007 202.623 262.169 217.649 262.169 228.275C262.169 242.143 249.066 256.173 224.039 256.173Z" fill="#F7B032"/>
</svg>
