<svg width="336" height="336" viewBox="0 0 336 336" fill="none" xmlns="http://www.w3.org/2000/svg">
<path d="M284.395 124.51C275.806 109.855 263.906 100.571 249.598 96.8434C255.062 82.9293 259.855 71.9323 259.947 71.7007C261.522 68.1122 261.174 63.9912 259.044 60.7269C256.914 57.4625 253.256 55.4714 249.344 55.4714H170.975C167.966 55.4714 165.072 56.6522 162.919 58.7358C147.847 73.3445 141.781 91.5417 141.087 114.809C129.395 105.896 112.795 101.011 91.8894 106.822C75.6369 111.336 63.2276 120.736 55.9348 134.025C47.7623 148.935 46.6742 168.174 52.8325 188.2C53.8975 191.649 55.2403 194.891 56.8378 197.947C46.4658 220.728 41.8123 256.613 41.2798 261.012C40.8863 264.184 41.8355 267.379 43.8728 269.833C45.9102 272.287 48.8736 273.792 52.0685 273.977C55.0782 274.162 125.714 278.422 141.434 279.07C141.596 279.07 141.758 279.07 141.897 279.07C146.875 279.07 151.32 275.875 152.894 271.106C156.344 260.595 159.284 250.107 161.715 239.898C166.345 250.339 172.689 259.576 181.857 266.962C191.534 274.764 200.887 279.116 210.449 280.274C212 280.459 213.551 280.552 215.079 280.552C235.522 280.552 254.738 264.438 257.539 243.949C258.743 235.151 257.725 227.627 255.479 220.473C262.448 217.163 269.162 212.37 275.667 206.027C297.499 184.727 300.926 152.755 284.395 124.556V124.51ZM169.656 165.349C179.588 143.957 193.965 131.062 204.545 126.038C208.643 124.093 212.556 122.542 216.33 121.315C214.686 126.616 213.32 131.687 212.347 136.132C208.481 154.236 211.236 178.939 219.015 196.21C219.872 198.086 220.705 199.891 221.539 201.628C189.242 194.451 176.231 178.453 169.656 165.372V165.349ZM175.976 78.6231H231.934C229.896 83.6238 227.581 89.4349 225.266 95.5701C215.635 96.8203 205.356 99.9921 194.59 105.109C183.732 110.271 173.36 118.976 164.493 130.02C162.942 104.622 166.507 89.6896 175.976 78.6231ZM76.2388 145.138C80.4988 137.336 87.861 131.965 98.0709 129.117C102.261 127.959 106.035 127.45 109.438 127.45C126.177 127.45 133.701 139.512 135.878 143.841C136.734 145.555 137.66 147.569 138.586 149.676C115.504 148.518 90.6855 158.01 73.2986 174.841C70.9371 163.404 71.9095 153.009 76.2388 145.115V145.138ZM144.49 173.73C141.92 186.927 133.979 197.576 123.214 201.396C112.355 205.263 99.7609 204.73 90.3845 200.007C88.3935 199.012 86.5645 197.808 84.8976 196.488C99.0432 179.286 124.371 169.655 144.513 173.73H144.49ZM133.516 255.502C116.199 254.599 83.902 252.677 66.0753 251.612C67.8348 241.426 70.5667 228.229 74.1552 217.255C76.0073 218.482 77.9058 219.663 79.9431 220.682C88.4398 224.942 98.2098 227.118 108.119 227.118C115.805 227.118 123.561 225.821 130.923 223.205C135.16 221.7 139.119 219.617 142.8 217.07C140.6 229.271 137.475 242.328 133.493 255.502H133.516ZM234.596 240.777C233.277 250.432 222.881 258.419 213.227 257.261C208.088 256.636 202.577 253.904 196.35 248.904C185.005 239.759 179.518 224.918 175.722 206.999C187.112 215.102 200.98 220.89 217.533 224.455C222.21 225.451 226.771 225.96 231.216 225.96C231.772 225.96 232.327 225.937 232.883 225.914C234.689 231.054 235.314 235.522 234.596 240.777ZM259.484 189.404C255.039 193.756 250.64 196.998 246.149 199.197C244.181 195.284 242.167 191.233 240.129 186.672C235.152 175.652 231.887 155.51 234.99 140.924C236.333 134.65 238.694 126.871 241.472 118.791C251.034 120.69 258.72 126.478 264.416 136.201C275.551 155.186 273.653 175.582 259.507 189.404H259.484Z" fill="#B4D3BA"/>
</svg>
