<svg width="336" height="336" viewBox="0 0 336 336" fill="none" xmlns="http://www.w3.org/2000/svg">
<path d="M287.868 116.291C278.329 82.6283 255.015 63.667 223.9 64.1995C204.174 64.5468 189.172 76.2847 175.929 86.8882C166.761 76.794 155.51 68.2511 139.141 64.0606C101.705 54.499 70.1263 69.5013 56.7215 103.233C45.8634 130.552 52.3921 157.454 74.1084 176.508C72.8351 177.203 71.5386 177.967 70.2421 178.8C44.7984 194.983 37.251 223.923 51.8828 249.204C58.5968 260.78 71.2839 269.462 86.7261 273.004C91.7268 274.162 96.8202 274.718 101.775 274.718C110.873 274.718 119.509 272.796 126.385 269.115C137.197 263.304 144.906 254.83 149.351 244.366C159.908 257.608 173.336 267.263 189.728 269.439C222.696 273.815 248.927 260.711 261.637 233.461C267.402 221.121 268.791 207.694 265.966 194.705C289.234 174.888 296.804 147.893 287.845 116.268L287.868 116.291ZM115.411 248.718C103.604 255.062 79.4796 250.64 71.9321 237.582C63.5976 223.182 67.8112 207.786 82.6745 198.317C89.8284 193.756 96.4729 192.182 105.224 192.182C108.859 192.182 112.887 192.46 117.448 192.9C118.513 193.015 119.578 193.131 120.666 193.247C120.713 193.247 120.736 193.247 120.782 193.247C122.171 193.386 123.607 193.571 125.112 193.733C125.991 197.021 127.01 200.354 128.121 203.665C131.71 216.977 134.048 238.694 115.434 248.695L115.411 248.718ZM123.676 136.641C119.416 147.708 119.185 159.191 120.435 169.979C102.4 167.965 95.4079 163.798 93.6484 162.525C75.8448 149.583 70.381 131.571 78.2294 111.799C81.8179 102.747 92.2362 84.3646 117.471 84.3646C122.241 84.3646 127.519 85.0129 133.4 86.5177C143.401 89.0644 150.671 94.042 157.084 100.663C139.882 111.174 128.932 122.982 123.676 136.664V136.641ZM144.258 173.151C142.66 163.659 141.989 153.495 145.277 144.953C148.703 136.016 156.76 127.843 169.887 119.949C170.442 119.625 170.975 119.277 171.531 118.93C171.878 119.439 172.248 119.926 172.619 120.435C179.194 129.672 185.977 139.234 195.168 148.147C202.901 155.649 210.286 161.02 216.792 165.766C223.807 170.859 229.873 175.281 234.318 180.953C235.174 182.065 236.216 183.477 237.281 185.167C226.886 188.755 213.111 189.103 195.608 186.301C186.741 184.889 178.013 182.296 168.752 179.587C160.811 177.249 152.685 174.864 144.258 173.174V173.151ZM240.638 223.691C232.234 241.68 215.658 249.575 192.737 246.519C174.031 244.042 159.26 222.418 150.787 198.502C154.537 199.521 158.334 200.632 162.2 201.79C171.739 204.591 181.602 207.508 191.927 209.152C212.926 212.532 230.22 211.907 244.25 207.23C244.319 212.347 243.347 217.88 240.638 223.668V223.691ZM256.289 171.947C255.108 170.165 253.858 168.405 252.515 166.669C246.079 158.45 238.462 152.917 230.382 147.059C224.201 142.568 217.811 137.914 211.259 131.548C203.619 124.139 197.437 115.457 191.464 107.053C191.024 106.428 190.561 105.803 190.121 105.178C201.975 95.7089 212.254 87.6059 224.27 87.3743C244.898 87.0039 258.812 98.8576 265.549 122.634C271.222 142.637 268.189 158.89 256.289 171.947Z" fill="#CB613A"/>
</svg>
