<svg width="336" height="336" viewBox="0 0 336 336" fill="none" xmlns="http://www.w3.org/2000/svg">
<path d="M287.358 148.008C280.829 129.973 266.452 118.027 244.667 112.471C241.634 111.707 238.439 111.035 235.082 110.503C240.661 103.418 243.949 94.5513 244.227 85.3138C244.574 73.5527 239.735 62.8104 231.007 55.8186C215.218 43.2009 192.761 48.4332 177.504 59.1987C162.432 69.8485 154.375 83.7395 152.87 101.96C124.718 89.6894 89.0875 95.4773 64.9172 118.652C49.3129 133.608 42.1359 156.274 45.2383 180.838C49.5676 215.38 72.5572 246.773 108.257 266.985C108.35 267.031 108.419 267.077 108.512 267.124C135.576 282.381 162.849 289.998 186.926 289.998C211.004 289.998 232.697 282.057 246.889 266.221C261.637 249.76 266.499 231.146 264.947 213.667C271.615 208.573 277.195 202.693 281.455 196.048C290.947 181.301 293.123 163.775 287.381 147.962L287.358 148.008ZM190.862 78.1136C196.28 74.2936 203.109 71.5617 208.897 71.5617C211.838 71.5617 214.5 72.2794 216.561 73.9232C220.473 77.0486 221.191 81.4938 221.098 84.6655C220.936 90.6387 217.857 96.4497 213.111 99.8299C204.313 106.058 191.395 108.905 178.522 110.873C177.619 110.989 176.74 111.082 175.837 111.197C175.073 92.3287 182.481 84.0867 190.885 78.1368L190.862 78.1136ZM130.367 183.894C124.556 173.498 124.023 161.529 129.047 153.403C134.025 145.346 144.258 139.905 160.233 136.873C165.418 147.036 169.678 167.849 163.613 189.056C161.737 195.562 159.422 201.466 156.528 206.883C141.341 200.239 133.654 189.774 130.367 183.894ZM187.968 148.448C201.165 157.292 217.209 170.535 230.475 187.551C232.095 189.635 235.985 195.053 238.856 202.507C227.65 207.855 213.667 211.375 197.738 212.625C191.071 213.157 185.028 213.088 179.518 212.578C181.995 207.23 184.125 201.535 185.885 195.446C190.445 179.541 190.631 162.826 187.968 148.448ZM68.1815 177.99C66.0053 160.742 70.6588 145.23 80.915 135.391C91.5416 125.204 107.099 118.698 122.704 118.698C126.917 118.698 131.131 119.208 135.252 120.226C123.56 125.158 114.994 132.15 109.368 141.271C100.015 156.436 100.316 177.619 110.179 195.215C114.971 203.781 124.185 215.866 140.808 224.895C141.294 225.15 141.804 225.381 142.29 225.636C135.02 232.558 125.991 238.531 114.74 243.972C88.2772 227.442 71.3996 203.665 68.1815 177.99ZM229.618 250.825C212.301 270.157 177.087 271.893 139.697 256.636C148.008 251.45 155.093 245.778 161.135 239.55C162.895 237.744 164.539 235.846 166.113 233.924C173.267 235.383 180.791 236.147 188.709 236.147C192.251 236.147 195.886 236.008 199.567 235.707C215.31 234.457 229.479 231.308 241.726 226.493C240.522 234.248 236.98 242.56 229.618 250.779V250.825ZM261.961 183.569C260.826 185.329 259.507 186.996 258.071 188.616C255.502 183.106 252.33 177.944 248.718 173.313C236.008 156.991 219.779 142.637 204.707 131.988C239.319 130.876 259.368 138.771 265.573 155.903C268.86 165.002 267.564 174.818 261.938 183.569H261.961Z" fill="#8A94A0"/>
</svg>
