<svg xmlns="http://www.w3.org/2000/svg" width="142" height="32" viewBox="0 0 142 32" fill="none">
    <g clipPath="url(#clip0_8607_36201)">
      <path
        d="M48.1677 9.74774C45.8264 9.74774 44.4705 10.6795 44.4705 12.1667C44.4705 13.3911 45.4292 13.9735 47.0508 14.1885L50.509 14.6126C54.4451 15.0904 56.1473 16.9778 56.1473 20.009C56.1473 23.73 52.9041 25.8593 48.5947 25.8593C43.7568 25.8593 40.7525 23.4941 40.3523 19.797H44.2615C44.4466 21.6306 46.0444 22.8281 48.5947 22.8281C50.96 22.8281 52.4502 21.8187 52.4502 20.1703C52.4502 18.8951 51.5991 18.0977 49.7923 17.8827L46.5222 17.4825C42.401 16.9778 40.8331 14.9291 40.8331 12.3788C40.8331 8.94739 43.8912 6.71655 48.1707 6.71655C52.4502 6.71655 55.2693 8.60395 55.8815 12.2474H52.0799C51.7334 10.7064 50.4045 9.74774 48.1707 9.74774H48.1677Z"
        fill="#CBC0AA"
      />
      <path
        d="M57.1267 18.8681C57.1267 14.8275 60.0773 11.9009 64.1208 11.9009C67.603 11.9009 70.1295 13.842 70.5296 17.0853H66.9669C66.6205 15.6219 65.5842 14.7708 64.1208 14.7708C62.0483 14.7708 60.6387 16.3655 60.6387 18.8651C60.6387 21.3648 62.0483 22.9595 64.1208 22.9595C65.6618 22.9595 66.7519 22.0546 67.0445 20.6719H70.6073C70.0488 24.0226 67.4447 25.8563 64.1208 25.8563C60.0803 25.8563 57.1267 22.9057 57.1267 18.8622V18.8681Z"
        fill="#CBC0AA"
      />
      <path
        d="M83.9027 25.5936H80.764V24.2377C79.9667 25.274 78.8229 25.8594 77.0161 25.8594C74.2238 25.8594 71.7511 24.2109 71.7511 20.4898V12.1667H75.1018V20.224C75.1018 22.0308 76.2187 22.9626 77.7597 22.9626C79.462 22.9626 80.5251 21.8994 80.5251 19.9045V12.1667H83.9027V25.5936Z"
        fill="#CBC0AA"
      />
      <path d="M86.4561 6.45068H89.8337V25.5965H86.4561V6.45068Z" fill="#CBC0AA" />
      <path
        d="M92.9156 12.1667H96.1857V13.7345C97.1683 12.5907 98.6047 11.9009 100.307 11.9009C104.162 11.9009 106.928 14.8246 106.928 18.8681C106.928 22.9117 104.162 25.8623 100.307 25.8623C98.6316 25.8623 97.3027 25.2501 96.2933 24.1331V31.178H92.9156V12.1667ZM103.419 18.8681C103.419 16.3954 102.009 14.7738 99.8291 14.7738C97.6491 14.7738 96.2933 16.3954 96.2933 18.8681C96.2933 21.3409 97.7028 22.9625 99.8291 22.9625C101.955 22.9625 103.419 21.3677 103.419 18.8681Z"
        fill="#CBC0AA"
      />
      <path
        d="M109.774 21.738V15.0366H107.008V12.1637H109.774V8.09619H113.151V12.1637H116.953V15.0366H113.151V21.2841C113.151 22.1621 113.656 22.6937 114.507 22.6937H116.953V25.5905H113.575C111.21 25.5905 109.774 24.0734 109.774 21.735V21.738Z"
        fill="#CBC0AA"
      />
      <path
        d="M117.75 18.8681C117.75 14.8275 120.728 11.9009 124.822 11.9009C128.917 11.9009 131.894 14.8246 131.894 18.8681C131.894 22.9117 128.917 25.8623 124.822 25.8623C120.728 25.8623 117.75 22.9117 117.75 18.8681ZM128.388 18.8681C128.388 16.3954 126.952 14.7738 124.825 14.7738C122.699 14.7738 121.262 16.3954 121.262 18.8681C121.262 21.3409 122.672 22.9625 124.825 22.9625C126.978 22.9625 128.388 21.3677 128.388 18.8681Z"
        fill="#CBC0AA"
      />
      <path
        d="M133.704 12.1668H136.947V14.1885C137.506 12.8596 138.861 12.0891 140.829 12.0891C141.176 12.0891 141.573 12.116 142 12.1697V15.2009H140.271C138.118 15.2009 137.081 16.4761 137.081 18.922V25.5966H133.704V12.1697V12.1668Z"
        fill="#CBC0AA"
      />
      <path
        d="M13.3757 30.6647C12.9934 30.6647 12.6052 30.6289 12.2199 30.5542C10.4789 30.2257 8.95282 29.1596 8.036 27.6276C7.3342 26.4599 6.88922 24.7547 6.66823 22.8523C3.79233 22.4163 1.2091 21.0426 1.06874 20.9679C0.593906 20.7141 0.295267 20.2243 0.283322 19.6868L-0.000385747 7.23052C-0.0153177 6.53469 0.453546 5.9195 1.12847 5.74927C1.63914 5.62086 6.19937 4.51888 9.03943 5.2595C9.50829 5.38194 9.96521 5.52529 10.4072 5.68656C11.8168 3.52441 13.3398 2.17755 14.624 1.34434C16.4994 0.12888 18.8796 -0.295188 20.994 0.209512C22.8127 0.645526 24.3148 1.74452 25.2197 3.30342C26.3127 5.18484 26.6353 6.89903 26.3904 9.05222C28.8153 8.98951 31.1089 10.0825 32.5364 12.0804C34.1968 14.4068 34.2506 18.1279 32.6618 20.9261C30.6938 24.3963 27.2295 25.8148 24.4283 24.3037C22.2811 23.145 20.1548 20.3587 22.2214 13.6572C22.2512 13.5617 22.2811 13.4661 22.308 13.3735C21.1254 14.0037 20.0712 14.81 19.0946 15.8283C20.6714 21.834 19.9159 27.2364 17.1833 29.3388C16.0545 30.2078 14.7315 30.6618 13.3727 30.6618L13.3757 30.6647ZM9.67553 22.8792C9.8577 24.238 10.1683 25.3788 10.5953 26.0926C11.0761 26.8929 11.8705 27.4514 12.7754 27.6216C13.6803 27.7918 14.6001 27.5649 15.3646 26.9765C16.6308 26.003 17.3237 22.8016 16.6607 18.7072C14.839 20.723 12.6679 22.4193 9.67553 22.8822V22.8792ZM25.7811 12.1103C25.584 12.8599 25.3481 13.6632 25.0793 14.5382C23.8997 18.3638 24.1595 20.7649 25.8498 21.6787C27.14 22.3745 28.9557 21.4189 30.0696 19.4568C31.079 17.6769 31.0969 15.2012 30.1114 13.8185C28.9587 12.2059 27.1519 11.8863 25.7841 12.1103H25.7811ZM11.6436 9.62561C11.0732 10.8739 10.5476 12.3522 10.1145 14.0992C9.67851 15.8463 9.47544 17.9188 9.48141 19.8809C11.6197 19.4717 13.4055 18.1189 15.6812 15.2191C15.708 15.1863 15.7319 15.1534 15.7588 15.1206C14.8868 12.7076 13.5101 10.8709 11.6436 9.62262V9.62561ZM3.24582 18.7072C4.07007 19.0746 5.26761 19.5285 6.49502 19.7883C6.49502 17.5336 6.74886 15.243 7.21474 13.3795C7.69854 11.4324 8.29283 9.76597 8.94983 8.34146C8.73183 8.27277 8.51083 8.20707 8.28685 8.14734C6.92207 7.79196 4.57178 8.09658 3.01288 8.39223L3.24582 18.7042V18.7072ZM13.1069 7.0155C15.2183 8.37132 16.8668 10.3005 18.0046 12.7494C19.5515 11.3965 21.2807 10.4021 23.2756 9.7152C23.7086 7.47541 23.4757 6.248 22.6365 4.80258C22.0063 3.71852 21.0178 3.2855 20.2981 3.11229C18.9841 2.79871 17.4342 3.07944 16.2486 3.84694C15.2959 4.46512 14.179 5.44765 13.1039 7.01252L13.1069 7.0155Z"
        fill="#CBC0AA"
      />
    </g>
    <defs>
      <clipPath id="clip0_8607_36201">
        <rect width="142" height="31.1779" fill="white" />
      </clipPath>
    </defs>
  </svg>
